<?xml version="1.0" encoding="UTF-8" standalone="no"?><svg xmlns="http://www.w3.org/2000/svg" xmlns:xlink="http://www.w3.org/1999/xlink" contentStyleType="text/css" height="453px" preserveAspectRatio="none" style="width:678px;height:453px;background:#FFFFFF;" version="1.1" viewBox="0 0 678 453" width="678px" zoomAndPan="magnify"><defs/><g><!--MD5=[3811ccf58d52a5193ad83e0d59dcd6d7]
cluster Gestion Personnel Enseignant--><g id="cluster_Gestion Personnel Enseignant"><rect fill="none" height="437" rx="2.5" ry="2.5" style="stroke:#181818;stroke-width:1.0;" width="543.83" x="129" y="7"/><text fill="#000000" font-family="sans-serif" font-size="14" font-weight="bold" lengthAdjust="spacing" textLength="215" x="293.415" y="22.5352">Gestion Personnel Enseignant</text></g><g id="elem_uc0"><ellipse cx="587.759" cy="257.0038" fill="#F1F1F1" rx="69.069" ry="16.2138" style="stroke:#181818;stroke-width:0.5;"/><text fill="#000000" font-family="sans-serif" font-size="14" lengthAdjust="spacing" textLength="91" x="539.945" y="260.873">S'authentifier</text></g><g id="elem_uc1"><ellipse cx="267.3404" cy="187.9954" fill="#F1F1F1" rx="47.6104" ry="14.6754" style="stroke:#181818;stroke-width:0.5;"/><text fill="#000000" font-family="sans-serif" font-size="14" lengthAdjust="spacing" textLength="51" x="240.1689" y="191.7238">Ajouter</text></g><g id="elem_uc2"><ellipse cx="267.3377" cy="252.9975" fill="#F1F1F1" rx="62.4377" ry="14.8875" style="stroke:#181818;stroke-width:0.5;"/><text fill="#000000" font-family="sans-serif" font-size="14" lengthAdjust="spacing" textLength="72" x="228.3377" y="257.0151">Supprimer</text></g><g id="elem_uc3"><ellipse cx="267.3447" cy="329.9989" fill="#F1F1F1" rx="122.3447" ry="26.8689" style="stroke:#181818;stroke-width:0.5;"/><text fill="#000000" font-family="sans-serif" font-size="14" lengthAdjust="spacing" textLength="212" x="161.3447" y="333.2899">Modifier Données Personnelles</text></g><g id="elem_uc4"><ellipse cx="267.3356" cy="122.9971" fill="#F1F1F1" rx="65.1356" ry="15.4271" style="stroke:#181818;stroke-width:0.5;"/><text fill="#000000" font-family="sans-serif" font-size="14" lengthAdjust="spacing" textLength="80" x="224.3356" y="127.0147">Promouvoir</text></g><g id="elem_uc5"><ellipse cx="587.7566" cy="120.004" fill="#F1F1F1" rx="60.1266" ry="14.774" style="stroke:#181818;stroke-width:0.5;"/><text fill="#000000" font-family="sans-serif" font-size="14" lengthAdjust="spacing" textLength="68" x="550.7566" y="124.0216">par Grade</text></g><g id="elem_uc6"><ellipse cx="267.3427" cy="56.9965" fill="#F1F1F1" rx="65.4827" ry="15.4965" style="stroke:#181818;stroke-width:0.5;"/><text fill="#000000" font-family="sans-serif" font-size="14" lengthAdjust="spacing" textLength="81" x="223.8427" y="61.0141">par Echelon</text></g><g id="elem_uc7"><ellipse cx="267.336" cy="410.0012" fill="#F1F1F1" rx="78.706" ry="18.1412" style="stroke:#181818;stroke-width:0.5;"/><text fill="#000000" font-family="sans-serif" font-size="14" lengthAdjust="spacing" textLength="115" x="209.836" y="413.2922">Consulter Profile</text></g><!--MD5=[a2a1127a9e0c3d5a4af797120761d109]
entity ad--><g id="elem_ad"><ellipse cx="44" cy="197.26" fill="#F1F1F1" rx="8" ry="8" style="stroke:#181818;stroke-width:0.5;"/><path d="M44,205.26 L44,232.26 M31,213.26 L57,213.26 M44,232.26 L31,247.26 M44,232.26 L57,247.26 " fill="none" style="stroke:#181818;stroke-width:0.5;"/><text fill="#000000" font-family="sans-serif" font-size="14" lengthAdjust="spacing" textLength="45" x="21.5" y="262.2952">Admin</text></g><!--MD5=[ded6a69210fbbc7961dee7b773232267]
entity es--><g id="elem_es"><ellipse cx="44" cy="380.26" fill="#F1F1F1" rx="8" ry="8" style="stroke:#181818;stroke-width:0.5;"/><path d="M44,388.26 L44,415.26 M31,396.26 L57,396.26 M44,415.26 L31,430.26 M44,415.26 L57,430.26 " fill="none" style="stroke:#181818;stroke-width:0.5;"/><text fill="#000000" font-family="sans-serif" font-size="14" lengthAdjust="spacing" textLength="76" x="6" y="445.2952">Enseignant</text></g><!--MD5=[dca142aebcb1b80057051487257bd47c]
link uc1 to uc0--><g id="link_uc1_uc0"><path d="M307.07,196.39 C362.62,208.43 465.31,230.68 529.61,244.62 " fill="none" id="uc1-to-uc0" style="stroke:#181818;stroke-width:1.0;stroke-dasharray:7.0,7.0;"/><polygon fill="#181818" points="534.23,245.62,526.2795,239.8071,529.3431,244.5626,524.5876,247.6262,534.23,245.62" style="stroke:#181818;stroke-width:1.0;"/><text fill="#000000" font-family="sans-serif" font-size="13" lengthAdjust="spacing" textLength="67" x="420.69" y="219.5684">«includes»</text></g><!--MD5=[0085e83a84e5093a4299e9c4a6570e87]
link uc2 to uc0--><g id="link_uc2_uc0"><path d="M328.35,256.41 C356.13,257.83 389.58,259.3 419.69,260 C450.35,260.71 458.03,260.47 488.69,260 C496.49,259.88 504.65,259.71 512.77,259.5 " fill="none" id="uc2-to-uc0" style="stroke:#181818;stroke-width:1.0;stroke-dasharray:7.0,7.0;"/><polygon fill="#181818" points="517.46,259.38,508.3602,255.6127,512.4617,259.5085,508.5658,263.61,517.46,259.38" style="stroke:#181818;stroke-width:1.0;"/><text fill="#000000" font-family="sans-serif" font-size="13" lengthAdjust="spacing" textLength="67" x="420.69" y="256.5684">«includes»</text></g><!--MD5=[e634cf96224b45d2c8997b4c7e791383]
link uc3 to uc0--><g id="link_uc3_uc0"><path d="M363.39,312.97 C402.39,305.48 447.88,296.09 488.69,286 C505.42,281.86 523.57,276.7 539.65,271.87 " fill="none" id="uc3-to-uc0" style="stroke:#181818;stroke-width:1.0;stroke-dasharray:7.0,7.0;"/><polygon fill="#181818" points="544.02,270.55,534.2485,269.3182,539.2328,271.9933,536.5577,276.9777,544.02,270.55" style="stroke:#181818;stroke-width:1.0;"/><text fill="#000000" font-family="sans-serif" font-size="13" lengthAdjust="spacing" textLength="67" x="420.69" y="282.5684">«includes»</text></g><!--MD5=[431ba564af6654f1577f27aa7249d73f]
link uc4 to uc0--><g id="link_uc4_uc0"><path d="M314.6,134.01 C337.43,139.83 365.24,147.53 389.69,156 C434.85,171.64 446.11,176.29 488.69,198 C512.64,210.21 538.66,225.99 557.88,238.16 " fill="none" id="uc4-to-uc0" style="stroke:#181818;stroke-width:1.0;stroke-dasharray:7.0,7.0;"/><polygon fill="#181818" points="561.83,240.68,556.3774,232.4782,557.6093,237.9993,552.0883,239.2313,561.83,240.68" style="stroke:#181818;stroke-width:1.0;"/><text fill="#000000" font-family="sans-serif" font-size="13" lengthAdjust="spacing" textLength="67" x="420.69" y="164.5684">«includes»</text></g><!--MD5=[0843a9643898cab2f231e461c7124d1d]
link uc7 to uc0--><g id="link_uc7_uc0"><path d="M320.9,396.33 C342.47,390.22 367.53,382.49 389.69,374 C435.17,356.58 446.7,351.69 488.69,327 C514.79,311.65 542.72,291.28 562.08,276.48 " fill="none" id="uc7-to-uc0" style="stroke:#181818;stroke-width:1.0;stroke-dasharray:7.0,7.0;"/><polygon fill="#181818" points="565.6,273.76,556.0283,276.0802,561.6379,276.8099,560.9082,282.4195,565.6,273.76" style="stroke:#181818;stroke-width:1.0;"/><text fill="#000000" font-family="sans-serif" font-size="13" lengthAdjust="spacing" textLength="67" x="420.69" y="323.5684">«includes»</text></g><!--MD5=[f3654041467947af8d437862c5d3678c]
reverse link uc4 to uc5--><g id="link_uc4_uc5"><path d="M354.1,122.19 C408.88,121.68 478.51,121.02 527.26,120.56 " fill="none" id="uc4-backto-uc5" style="stroke:#181818;stroke-width:1.0;"/><polygon fill="none" points="354.36,129.19,334.29,122.38,354.23,115.19,354.36,129.19" style="stroke:#181818;stroke-width:1.0;"/></g><!--MD5=[fbf5528bea152696ecbcde914b80ae16]
reverse link uc4 to uc6--><g id="link_uc4_uc6"><path d="M267.34,85.94 C267.34,81.53 267.34,77.12 267.34,72.71 " fill="none" id="uc4-backto-uc6" style="stroke:#181818;stroke-width:1.0;"/><polygon fill="none" points="274.34,85.76,267.34,105.76,260.34,85.76,274.34,85.76" style="stroke:#181818;stroke-width:1.0;"/></g><!--MD5=[677159fdebac502fd81e38453af4d96d]
link ad to uc1--><g id="link_ad_uc1"><path d="M66.63,223.19 C103.29,216.73 178.21,203.53 225.15,195.26 " fill="none" id="ad-uc1" style="stroke:#181818;stroke-width:1.0;"/></g><!--MD5=[17cd199b1afb2a74404e3949e32511d9]
link ad to uc2--><g id="link_ad_uc2"><path d="M66.63,229.54 C99.7,233.42 163.9,240.97 210.62,246.45 " fill="none" id="ad-uc2" style="stroke:#181818;stroke-width:1.0;"/></g><!--MD5=[9df949420ad6f58ab0abba31074783be]
link ad to uc3--><g id="link_ad_uc3"><path d="M66.86,247.02 C81.34,259.39 101.23,274.81 121,285 C140.6,295.11 162.88,303.41 184.01,310.01 " fill="none" id="ad-uc3" style="stroke:#181818;stroke-width:1.0;"/></g><!--MD5=[a6bf4e839c9baa87dc08ad4a73df396f]
link ad to uc4--><g id="link_ad_uc4"><path d="M66.72,200.67 C80.69,185.41 100.1,167.08 121,156 C147.52,141.94 179.85,133.85 207.28,129.2 " fill="none" id="ad-uc4" style="stroke:#181818;stroke-width:1.0;"/></g><!--MD5=[e199695afd00cd2eb4ea539265230b18]
link es to uc7--><g id="link_es_uc7"><path d="M82.05,410 C110.97,410 152.17,410 188.28,410 " fill="none" id="es-uc7" style="stroke:#181818;stroke-width:1.0;"/></g><!--MD5=[3fd31608ca0896f6bda8f74c5ebca320]
@startuml UseCase1
left to right direction
actor :Admin: as ad
actor :Enseignant: as es

rectangle "Gestion Personnel Enseignant" {
    (S'authentifier) as uc0
    

    (Ajouter) as uc1
    (Supprimer) as uc2
    (Modifier Données Personnelles) as uc3

    (Promouvoir) as uc4
    (par Grade) as uc5
    (par Echelon) as uc6
    (Consulter Profile) as uc7
}

' INCLUDE
uc1 ..> uc0 : <<includes>>
uc2 ..> uc0 : <<includes>>
uc3 ..> uc0 : <<includes>>
uc4 ..> uc0 : <<includes>>
uc7 ..> uc0 : <<includes>>

' EXTENSIONS
uc4 <|- - uc5
uc4 <|- uc6

' ASSOCIATIONS
ad - - uc1
ad - - uc2
ad - - uc3
ad - - uc4
es - - uc7

@enduml

@startuml UseCase1
left to right direction
actor :Admin: as ad
actor :Enseignant: as es

rectangle "Gestion Personnel Enseignant" {
    (S'authentifier) as uc0
    

    (Ajouter) as uc1
    (Supprimer) as uc2
    (Modifier Données Personnelles) as uc3

    (Promouvoir) as uc4
    (par Grade) as uc5
    (par Echelon) as uc6
    (Consulter Profile) as uc7
}

uc1 ..> uc0 : <<includes>>
uc2 ..> uc0 : <<includes>>
uc3 ..> uc0 : <<includes>>
uc4 ..> uc0 : <<includes>>
uc7 ..> uc0 : <<includes>>

uc4 <|- - uc5
uc4 <|- uc6

ad - - uc1
ad - - uc2
ad - - uc3
ad - - uc4
es - - uc7

@enduml

PlantUML version 1.2022.7(Mon Aug 22 18:01:30 CET 2022)
(GPL source distribution)
Java Runtime: OpenJDK Runtime Environment
JVM: OpenJDK 64-Bit Server VM
Default Encoding: UTF-8
Language: en
Country: GB
--></g></svg>