<?xml version="1.0" encoding="UTF-8" standalone="no"?><svg xmlns="http://www.w3.org/2000/svg" xmlns:xlink="http://www.w3.org/1999/xlink" contentStyleType="text/css" height="427px" preserveAspectRatio="none" style="width:1056px;height:427px;background:#FFFFFF;" version="1.1" viewBox="0 0 1056 427" width="1056px" zoomAndPan="magnify"><defs/><g><rect fill="#FFFFFF" height="212.4609" style="stroke:#181818;stroke-width:1.0;" width="10" x="208" y="114.9609"/><rect fill="#FFFFFF" height="182.1094" style="stroke:#181818;stroke-width:1.0;" width="10" x="431" y="145.3125"/><rect fill="#FFFFFF" height="121.4063" style="stroke:#181818;stroke-width:1.0;" width="10" x="701" y="175.6641"/><rect fill="#FFFFFF" height="60.7031" style="stroke:#181818;stroke-width:1.0;" width="10" x="991" y="206.0156"/><line style="stroke:#181818;stroke-width:0.5;stroke-dasharray:5.0,5.0;" x1="67" x2="67" y1="82.6094" y2="345.4219"/><line style="stroke:#181818;stroke-width:0.5;stroke-dasharray:5.0,5.0;" x1="213" x2="213" y1="82.6094" y2="345.4219"/><line style="stroke:#181818;stroke-width:0.5;stroke-dasharray:5.0,5.0;" x1="436" x2="436" y1="82.6094" y2="345.4219"/><line style="stroke:#181818;stroke-width:0.5;stroke-dasharray:5.0,5.0;" x1="705.5" x2="705.5" y1="82.6094" y2="345.4219"/><line style="stroke:#181818;stroke-width:0.5;stroke-dasharray:5.0,5.0;" x1="995.5" x2="995.5" y1="82.6094" y2="345.4219"/><text fill="#000000" font-family="sans-serif" font-size="14" lengthAdjust="spacing" textLength="119" x="5" y="79.5332">ADMINISTRATEUR</text><ellipse cx="67.5" cy="13.5" fill="#E2E2F0" rx="8" ry="8" style="stroke:#181818;stroke-width:0.5;"/><path d="M67.5,21.5 L67.5,48.5 M54.5,29.5 L80.5,29.5 M67.5,48.5 L54.5,63.5 M67.5,48.5 L80.5,63.5 " fill="none" style="stroke:#181818;stroke-width:0.5;"/><text fill="#000000" font-family="sans-serif" font-size="14" lengthAdjust="spacing" textLength="119" x="5" y="358.9551">ADMINISTRATEUR</text><ellipse cx="67.5" cy="370.5313" fill="#E2E2F0" rx="8" ry="8" style="stroke:#181818;stroke-width:0.5;"/><path d="M67.5,378.5313 L67.5,405.5313 M54.5,386.5313 L80.5,386.5313 M67.5,405.5313 L54.5,420.5313 M67.5,405.5313 L80.5,420.5313 " fill="none" style="stroke:#181818;stroke-width:0.5;"/><text fill="#000000" font-family="sans-serif" font-size="14" lengthAdjust="spacing" textLength="140" x="140" y="79.5332">Service de Recherche</text><path d="M192.5,37 L192.5,61 M192.5,49 L209.5,49 " fill="none" style="stroke:#181818;stroke-width:0.5;"/><ellipse cx="221.5" cy="49" fill="#E2E2F0" rx="12" ry="12" style="stroke:#181818;stroke-width:0.5;"/><text fill="#000000" font-family="sans-serif" font-size="14" lengthAdjust="spacing" textLength="140" x="140" y="358.9551">Service de Recherche</text><path d="M192.5,366.0313 L192.5,390.0313 M192.5,378.0313 L209.5,378.0313 " fill="none" style="stroke:#181818;stroke-width:0.5;"/><ellipse cx="221.5" cy="378.0313" fill="#E2E2F0" rx="12" ry="12" style="stroke:#181818;stroke-width:0.5;"/><text fill="#000000" font-family="sans-serif" font-size="14" lengthAdjust="spacing" textLength="182" x="342" y="79.5332">GestionEnseignantController</text><ellipse cx="436" cy="49" fill="#E2E2F0" rx="12" ry="12" style="stroke:#181818;stroke-width:0.5;"/><polygon fill="#181818" points="432,37,438,32,436,37,438,42,432,37" style="stroke:#181818;stroke-width:1.0;"/><text fill="#000000" font-family="sans-serif" font-size="14" lengthAdjust="spacing" textLength="182" x="342" y="358.9551">GestionEnseignantController</text><ellipse cx="436" cy="378.0313" fill="#E2E2F0" rx="12" ry="12" style="stroke:#181818;stroke-width:0.5;"/><polygon fill="#181818" points="432,366.0313,438,361.0313,436,366.0313,438,371.0313,432,366.0313" style="stroke:#181818;stroke-width:1.0;"/><text fill="#000000" font-family="sans-serif" font-size="14" lengthAdjust="spacing" textLength="101" x="652.5" y="79.5332">EnseignantDAO</text><ellipse cx="706" cy="49" fill="#E2E2F0" rx="12" ry="12" style="stroke:#181818;stroke-width:0.5;"/><line style="stroke:#181818;stroke-width:0.5;" x1="694" x2="718" y1="63" y2="63"/><text fill="#000000" font-family="sans-serif" font-size="14" lengthAdjust="spacing" textLength="101" x="652.5" y="358.9551">EnseignantDAO</text><ellipse cx="706" cy="378.0313" fill="#E2E2F0" rx="12" ry="12" style="stroke:#181818;stroke-width:0.5;"/><line style="stroke:#181818;stroke-width:0.5;" x1="694" x2="718" y1="392.0313" y2="392.0313"/><text fill="#000000" font-family="sans-serif" font-size="14" lengthAdjust="spacing" textLength="113" x="936.5" y="79.5332">Base de Données</text><path d="M978,29 C978,19 996,19 996,19 C996,19 1014,19 1014,29 L1014,55 C1014,65 996,65 996,65 C996,65 978,65 978,55 L978,29 " fill="#E2E2F0" style="stroke:#181818;stroke-width:1.5;"/><path d="M978,29 C978,39 996,39 996,39 C996,39 1014,39 1014,29 " fill="none" style="stroke:#181818;stroke-width:1.5;"/><text fill="#000000" font-family="sans-serif" font-size="14" lengthAdjust="spacing" textLength="113" x="936.5" y="358.9551">Base de Données</text><path d="M978,372.0313 C978,362.0313 996,362.0313 996,362.0313 C996,362.0313 1014,362.0313 1014,372.0313 L1014,398.0313 C1014,408.0313 996,408.0313 996,408.0313 C996,408.0313 978,408.0313 978,398.0313 L978,372.0313 " fill="#E2E2F0" style="stroke:#181818;stroke-width:1.5;"/><path d="M978,372.0313 C978,382.0313 996,382.0313 996,382.0313 C996,382.0313 1014,382.0313 1014,372.0313 " fill="none" style="stroke:#181818;stroke-width:1.5;"/><rect fill="#FFFFFF" height="212.4609" style="stroke:#181818;stroke-width:1.0;" width="10" x="208" y="114.9609"/><rect fill="#FFFFFF" height="182.1094" style="stroke:#181818;stroke-width:1.0;" width="10" x="431" y="145.3125"/><rect fill="#FFFFFF" height="121.4063" style="stroke:#181818;stroke-width:1.0;" width="10" x="701" y="175.6641"/><rect fill="#FFFFFF" height="60.7031" style="stroke:#181818;stroke-width:1.0;" width="10" x="991" y="206.0156"/><polygon fill="#181818" points="196,110.9609,206,114.9609,196,118.9609,200,114.9609" style="stroke:#181818;stroke-width:1.0;"/><line style="stroke:#181818;stroke-width:1.0;" x1="67.5" x2="202" y1="114.9609" y2="114.9609"/><text fill="#000000" font-family="sans-serif" font-size="13" lengthAdjust="spacing" textLength="89" x="74.5" y="110.1045">Authentification</text><polygon fill="#181818" points="196,141.3125,206,145.3125,196,149.3125,200,145.3125" style="stroke:#181818;stroke-width:1.0;"/><line style="stroke:#181818;stroke-width:1.0;" x1="67.5" x2="202" y1="145.3125" y2="145.3125"/><text fill="#000000" font-family="sans-serif" font-size="13" lengthAdjust="spacing" textLength="110" x="74.5" y="140.4561">Ajouter Enseignant</text><polygon fill="#181818" points="419,171.6641,429,175.6641,419,179.6641,423,175.6641" style="stroke:#181818;stroke-width:1.0;"/><line style="stroke:#181818;stroke-width:1.0;" x1="218" x2="425" y1="175.6641" y2="175.6641"/><text fill="#000000" font-family="sans-serif" font-size="13" lengthAdjust="spacing" textLength="172" x="225" y="170.8076">Demande d'ajout d'enseignant</text><polygon fill="#181818" points="689,202.0156,699,206.0156,689,210.0156,693,206.0156" style="stroke:#181818;stroke-width:1.0;"/><line style="stroke:#181818;stroke-width:1.0;" x1="441" x2="695" y1="206.0156" y2="206.0156"/><text fill="#000000" font-family="sans-serif" font-size="13" lengthAdjust="spacing" textLength="236" x="448" y="201.1592">Appel de la méthode d'ajout d'enseignant</text><polygon fill="#181818" points="979,232.3672,989,236.3672,979,240.3672,983,236.3672" style="stroke:#181818;stroke-width:1.0;"/><line style="stroke:#181818;stroke-width:1.0;" x1="711" x2="985" y1="236.3672" y2="236.3672"/><text fill="#000000" font-family="sans-serif" font-size="13" lengthAdjust="spacing" textLength="256" x="718" y="231.5107">Enregistrement des données de l'enseignant</text><polygon fill="#181818" points="722,262.7188,712,266.7188,722,270.7188,718,266.7188" style="stroke:#181818;stroke-width:1.0;"/><line style="stroke:#181818;stroke-width:1.0;stroke-dasharray:2.0,2.0;" x1="716" x2="995" y1="266.7188" y2="266.7188"/><text fill="#000000" font-family="sans-serif" font-size="13" lengthAdjust="spacing" textLength="171" x="728" y="261.8623">Confirmation d'enregistrement</text><line style="stroke:#A80036;stroke-width:2.0;" x1="987" x2="1005" y1="257.7188" y2="275.7188"/><line style="stroke:#A80036;stroke-width:2.0;" x1="987" x2="1005" y1="275.7188" y2="257.7188"/><polygon fill="#181818" points="452,293.0703,442,297.0703,452,301.0703,448,297.0703" style="stroke:#181818;stroke-width:1.0;"/><line style="stroke:#181818;stroke-width:1.0;stroke-dasharray:2.0,2.0;" x1="446" x2="705" y1="297.0703" y2="297.0703"/><text fill="#000000" font-family="sans-serif" font-size="13" lengthAdjust="spacing" textLength="172" x="458" y="292.2139">Réponse de l'opération d'ajout</text><line style="stroke:#A80036;stroke-width:2.0;" x1="697" x2="715" y1="288.0703" y2="306.0703"/><line style="stroke:#A80036;stroke-width:2.0;" x1="697" x2="715" y1="306.0703" y2="288.0703"/><polygon fill="#181818" points="224,323.4219,214,327.4219,224,331.4219,220,327.4219" style="stroke:#181818;stroke-width:1.0;"/><line style="stroke:#181818;stroke-width:1.0;stroke-dasharray:2.0,2.0;" x1="218" x2="435" y1="327.4219" y2="327.4219"/><text fill="#000000" font-family="sans-serif" font-size="13" lengthAdjust="spacing" textLength="189" x="230" y="322.5654">Confirmation d'ajout d'enseignant</text><line style="stroke:#A80036;stroke-width:2.0;" x1="427" x2="445" y1="318.4219" y2="336.4219"/><line style="stroke:#A80036;stroke-width:2.0;" x1="427" x2="445" y1="336.4219" y2="318.4219"/><!--MD5=[03d37d29dc5a3b7b21d3a14ae0817656]
@startuml ff
actor ADMINISTRATEUR as Admin
boundary "Service de Recherche" as Service
control "GestionEnseignantController" as Controller
entity "EnseignantDAO" as EnseignantServiceBean
database "Base de Données" as Database

Admin -> Service : Authentification
activate Service

Admin -> Service : Ajouter Enseignant
activate Controller
Service -> Controller : Demande d'ajout d'enseignant
activate EnseignantServiceBean
Controller -> EnseignantServiceBean : Appel de la méthode d'ajout d'enseignant
activate Database
EnseignantServiceBean -> Database : Enregistrement des données de l'enseignant
Database - -> EnseignantServiceBean : Confirmation d'enregistrement
destroy Database
EnseignantServiceBean - -> Controller : Réponse de l'opération d'ajout
destroy EnseignantServiceBean
Controller - -> Service : Confirmation d'ajout d'enseignant
destroy Controller

deactivate Service
@enduml

PlantUML version 1.2022.7(Mon Aug 22 18:01:30 WEST 2022)
(GPL source distribution)
Java Runtime: Java(TM) SE Runtime Environment
JVM: Java HotSpot(TM) 64-Bit Server VM
Default Encoding: UTF-8
Language: fr
Country: FR
--></g></svg>