<?xml version="1.0" encoding="UTF-8" standalone="no"?><svg xmlns="http://www.w3.org/2000/svg" xmlns:xlink="http://www.w3.org/1999/xlink" contentStyleType="text/css" height="518px" preserveAspectRatio="none" style="width:1219px;height:518px;background:#FFFFFF;" version="1.1" viewBox="0 0 1219 518" width="1219px" zoomAndPan="magnify"><defs/><g><rect fill="#FFFFFF" height="303.5156" style="stroke:#181818;stroke-width:1.0;" width="10" x="268.5" y="114.9609"/><rect fill="#FFFFFF" height="242.8125" style="stroke:#181818;stroke-width:1.0;" width="10" x="494.5" y="145.3125"/><rect fill="#FFFFFF" height="242.8125" style="stroke:#181818;stroke-width:1.0;" width="10" x="717.5" y="175.6641"/><rect fill="#FFFFFF" height="60.7031" style="stroke:#181818;stroke-width:1.0;" width="10" x="1154" y="266.7188"/><line style="stroke:#181818;stroke-width:0.5;stroke-dasharray:5.0,5.0;" x1="67" x2="67" y1="82.6094" y2="436.4766"/><line style="stroke:#181818;stroke-width:0.5;stroke-dasharray:5.0,5.0;" x1="273" x2="273" y1="82.6094" y2="436.4766"/><line style="stroke:#181818;stroke-width:0.5;stroke-dasharray:5.0,5.0;" x1="499.5" x2="499.5" y1="82.6094" y2="436.4766"/><line style="stroke:#181818;stroke-width:0.5;stroke-dasharray:5.0,5.0;" x1="722.5" x2="722.5" y1="82.6094" y2="436.4766"/><line style="stroke:#181818;stroke-width:0.5;stroke-dasharray:5.0,5.0;" x1="873.5" x2="873.5" y1="82.6094" y2="436.4766"/><line style="stroke:#181818;stroke-width:0.5;stroke-dasharray:5.0,5.0;" x1="1158.5" x2="1158.5" y1="82.6094" y2="436.4766"/><text fill="#000000" font-family="sans-serif" font-size="14" lengthAdjust="spacing" textLength="119" x="5" y="79.5332">ADMINISTRATEUR</text><ellipse cx="67.5" cy="13.5" fill="#E2E2F0" rx="8" ry="8" style="stroke:#181818;stroke-width:0.5;"/><path d="M67.5,21.5 L67.5,48.5 M54.5,29.5 L80.5,29.5 M67.5,48.5 L54.5,63.5 M67.5,48.5 L80.5,63.5 " fill="none" style="stroke:#181818;stroke-width:0.5;"/><text fill="#000000" font-family="sans-serif" font-size="14" lengthAdjust="spacing" textLength="119" x="5" y="450.0098">ADMINISTRATEUR</text><ellipse cx="67.5" cy="461.5859" fill="#E2E2F0" rx="8" ry="8" style="stroke:#181818;stroke-width:0.5;"/><path d="M67.5,469.5859 L67.5,496.5859 M54.5,477.5859 L80.5,477.5859 M67.5,496.5859 L54.5,511.5859 M67.5,496.5859 L80.5,511.5859 " fill="none" style="stroke:#181818;stroke-width:0.5;"/><text fill="#000000" font-family="sans-serif" font-size="14" lengthAdjust="spacing" textLength="83" x="229" y="79.5332">Page Liste UI</text><path d="M253,37 L253,61 M253,49 L270,49 " fill="none" style="stroke:#181818;stroke-width:0.5;"/><ellipse cx="282" cy="49" fill="#E2E2F0" rx="12" ry="12" style="stroke:#181818;stroke-width:0.5;"/><text fill="#000000" font-family="sans-serif" font-size="14" lengthAdjust="spacing" textLength="83" x="229" y="450.0098">Page Liste UI</text><path d="M253,457.0859 L253,481.0859 M253,469.0859 L270,469.0859 " fill="none" style="stroke:#181818;stroke-width:0.5;"/><ellipse cx="282" cy="469.0859" fill="#E2E2F0" rx="12" ry="12" style="stroke:#181818;stroke-width:0.5;"/><text fill="#000000" font-family="sans-serif" font-size="14" lengthAdjust="spacing" textLength="182" x="405.5" y="79.5332">GestionEnseignantController</text><ellipse cx="499.5" cy="49" fill="#E2E2F0" rx="12" ry="12" style="stroke:#181818;stroke-width:0.5;"/><polygon fill="#181818" points="495.5,37,501.5,32,499.5,37,501.5,42,495.5,37" style="stroke:#181818;stroke-width:1.0;"/><text fill="#000000" font-family="sans-serif" font-size="14" lengthAdjust="spacing" textLength="182" x="405.5" y="450.0098">GestionEnseignantController</text><ellipse cx="499.5" cy="469.0859" fill="#E2E2F0" rx="12" ry="12" style="stroke:#181818;stroke-width:0.5;"/><polygon fill="#181818" points="495.5,457.0859,501.5,452.0859,499.5,457.0859,501.5,462.0859,495.5,457.0859" style="stroke:#181818;stroke-width:1.0;"/><text fill="#000000" font-family="sans-serif" font-size="14" lengthAdjust="spacing" textLength="120" x="659.5" y="79.5332">Formulaire Ajout UI</text><path d="M702,37 L702,61 M702,49 L719,49 " fill="none" style="stroke:#181818;stroke-width:0.5;"/><ellipse cx="731" cy="49" fill="#E2E2F0" rx="12" ry="12" style="stroke:#181818;stroke-width:0.5;"/><text fill="#000000" font-family="sans-serif" font-size="14" lengthAdjust="spacing" textLength="120" x="659.5" y="450.0098">Formulaire Ajout UI</text><path d="M702,457.0859 L702,481.0859 M702,469.0859 L719,469.0859 " fill="none" style="stroke:#181818;stroke-width:0.5;"/><ellipse cx="731" cy="469.0859" fill="#E2E2F0" rx="12" ry="12" style="stroke:#181818;stroke-width:0.5;"/><text fill="#000000" font-family="sans-serif" font-size="14" lengthAdjust="spacing" textLength="151" x="795.5" y="79.5332">EnseignantServiceBean</text><ellipse cx="874" cy="49" fill="#E2E2F0" rx="12" ry="12" style="stroke:#181818;stroke-width:0.5;"/><line style="stroke:#181818;stroke-width:0.5;" x1="862" x2="886" y1="63" y2="63"/><text fill="#000000" font-family="sans-serif" font-size="14" lengthAdjust="spacing" textLength="151" x="795.5" y="450.0098">EnseignantServiceBean</text><ellipse cx="874" cy="469.0859" fill="#E2E2F0" rx="12" ry="12" style="stroke:#181818;stroke-width:0.5;"/><line style="stroke:#181818;stroke-width:0.5;" x1="862" x2="886" y1="483.0859" y2="483.0859"/><text fill="#000000" font-family="sans-serif" font-size="14" lengthAdjust="spacing" textLength="113" x="1099.5" y="79.5332">Base de Données</text><path d="M1141,29 C1141,19 1159,19 1159,19 C1159,19 1177,19 1177,29 L1177,55 C1177,65 1159,65 1159,65 C1159,65 1141,65 1141,55 L1141,29 " fill="#E2E2F0" style="stroke:#181818;stroke-width:1.5;"/><path d="M1141,29 C1141,39 1159,39 1159,39 C1159,39 1177,39 1177,29 " fill="none" style="stroke:#181818;stroke-width:1.5;"/><text fill="#000000" font-family="sans-serif" font-size="14" lengthAdjust="spacing" textLength="113" x="1099.5" y="450.0098">Base de Données</text><path d="M1141,463.0859 C1141,453.0859 1159,453.0859 1159,453.0859 C1159,453.0859 1177,453.0859 1177,463.0859 L1177,489.0859 C1177,499.0859 1159,499.0859 1159,499.0859 C1159,499.0859 1141,499.0859 1141,489.0859 L1141,463.0859 " fill="#E2E2F0" style="stroke:#181818;stroke-width:1.5;"/><path d="M1141,463.0859 C1141,473.0859 1159,473.0859 1159,473.0859 C1159,473.0859 1177,473.0859 1177,463.0859 " fill="none" style="stroke:#181818;stroke-width:1.5;"/><rect fill="#FFFFFF" height="303.5156" style="stroke:#181818;stroke-width:1.0;" width="10" x="268.5" y="114.9609"/><rect fill="#FFFFFF" height="242.8125" style="stroke:#181818;stroke-width:1.0;" width="10" x="494.5" y="145.3125"/><rect fill="#FFFFFF" height="242.8125" style="stroke:#181818;stroke-width:1.0;" width="10" x="717.5" y="175.6641"/><rect fill="#FFFFFF" height="60.7031" style="stroke:#181818;stroke-width:1.0;" width="10" x="1154" y="266.7188"/><polygon fill="#181818" points="256.5,110.9609,266.5,114.9609,256.5,118.9609,260.5,114.9609" style="stroke:#181818;stroke-width:1.0;"/><line style="stroke:#181818;stroke-width:1.0;" x1="67.5" x2="262.5" y1="114.9609" y2="114.9609"/><text fill="#000000" font-family="sans-serif" font-size="13" lengthAdjust="spacing" textLength="182" x="74.5" y="110.1045">Clique sur "Ajouter Enseignant"</text><polygon fill="#181818" points="482.5,141.3125,492.5,145.3125,482.5,149.3125,486.5,145.3125" style="stroke:#181818;stroke-width:1.0;"/><line style="stroke:#181818;stroke-width:1.0;" x1="278.5" x2="488.5" y1="145.3125" y2="145.3125"/><text fill="#000000" font-family="sans-serif" font-size="13" lengthAdjust="spacing" textLength="197" x="285.5" y="140.4561">Demande d'affichage du formulaire</text><polygon fill="#181818" points="705.5,171.6641,715.5,175.6641,705.5,179.6641,709.5,175.6641" style="stroke:#181818;stroke-width:1.0;"/><line style="stroke:#181818;stroke-width:1.0;" x1="504.5" x2="711.5" y1="175.6641" y2="175.6641"/><text fill="#000000" font-family="sans-serif" font-size="13" lengthAdjust="spacing" textLength="154" x="511.5" y="170.8076">Affiche le formulaire d'ajout</text><polygon fill="#181818" points="705.5,202.0156,715.5,206.0156,705.5,210.0156,709.5,206.0156" style="stroke:#181818;stroke-width:1.0;"/><line style="stroke:#181818;stroke-width:1.0;" x1="67.5" x2="711.5" y1="206.0156" y2="206.0156"/><text fill="#000000" font-family="sans-serif" font-size="13" lengthAdjust="spacing" textLength="229" x="74.5" y="201.1592">Remplit les informations de l'enseignant</text><polygon fill="#181818" points="515.5,232.3672,505.5,236.3672,515.5,240.3672,511.5,236.3672" style="stroke:#181818;stroke-width:1.0;"/><line style="stroke:#181818;stroke-width:1.0;" x1="509.5" x2="716.5" y1="236.3672" y2="236.3672"/><text fill="#000000" font-family="sans-serif" font-size="13" lengthAdjust="spacing" textLength="140" x="521.5" y="231.5107">Soumet les informations</text><polygon fill="#181818" points="862,262.7188,872,266.7188,862,270.7188,866,266.7188" style="stroke:#181818;stroke-width:1.0;"/><line style="stroke:#181818;stroke-width:1.0;" x1="504.5" x2="868" y1="266.7188" y2="266.7188"/><text fill="#000000" font-family="sans-serif" font-size="13" lengthAdjust="spacing" textLength="236" x="511.5" y="261.8623">Appel de la méthode d'ajout d'enseignant</text><polygon fill="#181818" points="1142,293.0703,1152,297.0703,1142,301.0703,1146,297.0703" style="stroke:#181818;stroke-width:1.0;"/><line style="stroke:#181818;stroke-width:1.0;" x1="874" x2="1148" y1="297.0703" y2="297.0703"/><text fill="#000000" font-family="sans-serif" font-size="13" lengthAdjust="spacing" textLength="256" x="881" y="292.2139">Enregistrement des données de l'enseignant</text><polygon fill="#181818" points="885,323.4219,875,327.4219,885,331.4219,881,327.4219" style="stroke:#181818;stroke-width:1.0;"/><line style="stroke:#181818;stroke-width:1.0;stroke-dasharray:2.0,2.0;" x1="879" x2="1158" y1="327.4219" y2="327.4219"/><text fill="#000000" font-family="sans-serif" font-size="13" lengthAdjust="spacing" textLength="171" x="891" y="322.5654">Confirmation d'enregistrement</text><line style="stroke:#A80036;stroke-width:2.0;" x1="1150" x2="1168" y1="318.4219" y2="336.4219"/><line style="stroke:#A80036;stroke-width:2.0;" x1="1150" x2="1168" y1="336.4219" y2="318.4219"/><polygon fill="#181818" points="515.5,353.7734,505.5,357.7734,515.5,361.7734,511.5,357.7734" style="stroke:#181818;stroke-width:1.0;"/><line style="stroke:#181818;stroke-width:1.0;stroke-dasharray:2.0,2.0;" x1="509.5" x2="873" y1="357.7734" y2="357.7734"/><text fill="#000000" font-family="sans-serif" font-size="13" lengthAdjust="spacing" textLength="172" x="521.5" y="352.917">Réponse de l'opération d'ajout</text><line style="stroke:#A80036;stroke-width:2.0;" x1="865" x2="883" y1="348.7734" y2="366.7734"/><line style="stroke:#A80036;stroke-width:2.0;" x1="865" x2="883" y1="366.7734" y2="348.7734"/><polygon fill="#181818" points="705.5,384.125,715.5,388.125,705.5,392.125,709.5,388.125" style="stroke:#181818;stroke-width:1.0;"/><line style="stroke:#181818;stroke-width:1.0;stroke-dasharray:2.0,2.0;" x1="499.5" x2="711.5" y1="388.125" y2="388.125"/><text fill="#000000" font-family="sans-serif" font-size="13" lengthAdjust="spacing" textLength="189" x="506.5" y="383.2686">Confirmation d'ajout d'enseignant</text><line style="stroke:#A80036;stroke-width:2.0;" x1="490.5" x2="508.5" y1="379.125" y2="397.125"/><line style="stroke:#A80036;stroke-width:2.0;" x1="490.5" x2="508.5" y1="397.125" y2="379.125"/><polygon fill="#181818" points="284.5,414.4766,274.5,418.4766,284.5,422.4766,280.5,418.4766" style="stroke:#181818;stroke-width:1.0;"/><line style="stroke:#181818;stroke-width:1.0;stroke-dasharray:2.0,2.0;" x1="278.5" x2="721.5" y1="418.4766" y2="418.4766"/><text fill="#000000" font-family="sans-serif" font-size="13" lengthAdjust="spacing" textLength="227" x="290.5" y="413.6201">Retour à la page liste avec confirmation</text><line style="stroke:#A80036;stroke-width:2.0;" x1="713.5" x2="731.5" y1="409.4766" y2="427.4766"/><line style="stroke:#A80036;stroke-width:2.0;" x1="713.5" x2="731.5" y1="427.4766" y2="409.4766"/><!--MD5=[8d3d22bbc06cdbc505789690f6821b9e]
@startuml AddTeacher

actor ADMINISTRATEUR as Admin
boundary "Page Liste UI" as PageListeUI
control "GestionEnseignantController" as Controller
boundary "Formulaire Ajout UI" as FormulaireAjoutUI
entity "EnseignantServiceBean" as EnseignantServiceBean
database "Base de Données" as Database

Admin -> PageListeUI : Clique sur "Ajouter Enseignant"
activate PageListeUI

PageListeUI -> Controller : Demande d'affichage du formulaire
activate Controller
Controller -> FormulaireAjoutUI : Affiche le formulaire d'ajout
activate FormulaireAjoutUI

Admin -> FormulaireAjoutUI : Remplit les informations de l'enseignant
FormulaireAjoutUI -> Controller : Soumet les informations
Controller -> EnseignantServiceBean : Appel de la méthode d'ajout d'enseignant
activate Database
EnseignantServiceBean -> Database : Enregistrement des données de l'enseignant
Database - -> EnseignantServiceBean : Confirmation d'enregistrement
destroy Database
EnseignantServiceBean - -> Controller : Réponse de l'opération d'ajout
destroy EnseignantServiceBean
Controller - -> FormulaireAjoutUI : Confirmation d'ajout d'enseignant
destroy Controller
FormulaireAjoutUI - -> PageListeUI : Retour à la page liste avec confirmation
destroy FormulaireAjoutUI

deactivate PageListeUI

@enduml

PlantUML version 1.2022.7(Mon Aug 22 18:01:30 WEST 2022)
(GPL source distribution)
Java Runtime: Java(TM) SE Runtime Environment
JVM: Java HotSpot(TM) 64-Bit Server VM
Default Encoding: UTF-8
Language: fr
Country: FR
--></g></svg>