<?xml version="1.0" encoding="UTF-8" standalone="no"?><svg xmlns="http://www.w3.org/2000/svg" xmlns:xlink="http://www.w3.org/1999/xlink" contentStyleType="text/css" height="518px" preserveAspectRatio="none" style="width:1411px;height:518px;background:#FFFFFF;" version="1.1" viewBox="0 0 1411 518" width="1411px" zoomAndPan="magnify"><defs/><g><rect fill="#FFFFFF" height="303.5156" style="stroke:#181818;stroke-width:1.0;" width="10" x="262.5" y="114.9609"/><rect fill="#FFFFFF" height="242.8125" style="stroke:#181818;stroke-width:1.0;" width="10" x="608.5" y="145.3125"/><rect fill="#FFFFFF" height="242.8125" style="stroke:#181818;stroke-width:1.0;" width="10" x="875.5" y="175.6641"/><rect fill="#FFFFFF" height="60.7031" style="stroke:#181818;stroke-width:1.0;" width="10" x="1345.5" y="266.7188"/><line style="stroke:#181818;stroke-width:0.5;stroke-dasharray:5.0,5.0;" x1="67" x2="67" y1="82.6094" y2="436.4766"/><line style="stroke:#181818;stroke-width:0.5;stroke-dasharray:5.0,5.0;" x1="267" x2="267" y1="82.6094" y2="436.4766"/><line style="stroke:#181818;stroke-width:0.5;stroke-dasharray:5.0,5.0;" x1="613" x2="613" y1="82.6094" y2="436.4766"/><line style="stroke:#181818;stroke-width:0.5;stroke-dasharray:5.0,5.0;" x1="880.5" x2="880.5" y1="82.6094" y2="436.4766"/><line style="stroke:#181818;stroke-width:0.5;stroke-dasharray:5.0,5.0;" x1="1062.5" x2="1062.5" y1="82.6094" y2="436.4766"/><line style="stroke:#181818;stroke-width:0.5;stroke-dasharray:5.0,5.0;" x1="1350" x2="1350" y1="82.6094" y2="436.4766"/><text fill="#000000" font-family="sans-serif" font-size="14" lengthAdjust="spacing" textLength="119" x="5" y="79.5332">ADMINISTRATEUR</text><ellipse cx="67.5" cy="13.5" fill="#E2E2F0" rx="8" ry="8" style="stroke:#181818;stroke-width:0.5;"/><path d="M67.5,21.5 L67.5,48.5 M54.5,29.5 L80.5,29.5 M67.5,48.5 L54.5,63.5 M67.5,48.5 L80.5,63.5 " fill="none" style="stroke:#181818;stroke-width:0.5;"/><text fill="#000000" font-family="sans-serif" font-size="14" lengthAdjust="spacing" textLength="119" x="5" y="450.0098">ADMINISTRATEUR</text><ellipse cx="67.5" cy="461.5859" fill="#E2E2F0" rx="8" ry="8" style="stroke:#181818;stroke-width:0.5;"/><path d="M67.5,469.5859 L67.5,496.5859 M54.5,477.5859 L80.5,477.5859 M67.5,496.5859 L54.5,511.5859 M67.5,496.5859 L80.5,511.5859 " fill="none" style="stroke:#181818;stroke-width:0.5;"/><text fill="#000000" font-family="sans-serif" font-size="14" lengthAdjust="spacing" textLength="83" x="223" y="79.5332">Page Liste UI</text><path d="M247,37 L247,61 M247,49 L264,49 " fill="none" style="stroke:#181818;stroke-width:0.5;"/><ellipse cx="276" cy="49" fill="#E2E2F0" rx="12" ry="12" style="stroke:#181818;stroke-width:0.5;"/><text fill="#000000" font-family="sans-serif" font-size="14" lengthAdjust="spacing" textLength="83" x="223" y="450.0098">Page Liste UI</text><path d="M247,457.0859 L247,481.0859 M247,469.0859 L264,469.0859 " fill="none" style="stroke:#181818;stroke-width:0.5;"/><ellipse cx="276" cy="469.0859" fill="#E2E2F0" rx="12" ry="12" style="stroke:#181818;stroke-width:0.5;"/><text fill="#000000" font-family="sans-serif" font-size="14" lengthAdjust="spacing" textLength="175" x="523" y="79.5332">GestionPromotionController</text><ellipse cx="613.5" cy="49" fill="#E2E2F0" rx="12" ry="12" style="stroke:#181818;stroke-width:0.5;"/><polygon fill="#181818" points="609.5,37,615.5,32,613.5,37,615.5,42,609.5,37" style="stroke:#181818;stroke-width:1.0;"/><text fill="#000000" font-family="sans-serif" font-size="14" lengthAdjust="spacing" textLength="175" x="523" y="450.0098">GestionPromotionController</text><ellipse cx="613.5" cy="469.0859" fill="#E2E2F0" rx="12" ry="12" style="stroke:#181818;stroke-width:0.5;"/><polygon fill="#181818" points="609.5,457.0859,615.5,452.0859,613.5,457.0859,615.5,462.0859,609.5,457.0859" style="stroke:#181818;stroke-width:1.0;"/><text fill="#000000" font-family="sans-serif" font-size="14" lengthAdjust="spacing" textLength="188" x="783.5" y="79.5332">Formulaire Ajout Promotion UI</text><path d="M860,37 L860,61 M860,49 L877,49 " fill="none" style="stroke:#181818;stroke-width:0.5;"/><ellipse cx="889" cy="49" fill="#E2E2F0" rx="12" ry="12" style="stroke:#181818;stroke-width:0.5;"/><text fill="#000000" font-family="sans-serif" font-size="14" lengthAdjust="spacing" textLength="188" x="783.5" y="450.0098">Formulaire Ajout Promotion UI</text><path d="M860,457.0859 L860,481.0859 M860,469.0859 L877,469.0859 " fill="none" style="stroke:#181818;stroke-width:0.5;"/><ellipse cx="889" cy="469.0859" fill="#E2E2F0" rx="12" ry="12" style="stroke:#181818;stroke-width:0.5;"/><text fill="#000000" font-family="sans-serif" font-size="14" lengthAdjust="spacing" textLength="144" x="987.5" y="79.5332">PromotionServiceBean</text><ellipse cx="1062.5" cy="49" fill="#E2E2F0" rx="12" ry="12" style="stroke:#181818;stroke-width:0.5;"/><line style="stroke:#181818;stroke-width:0.5;" x1="1050.5" x2="1074.5" y1="63" y2="63"/><text fill="#000000" font-family="sans-serif" font-size="14" lengthAdjust="spacing" textLength="144" x="987.5" y="450.0098">PromotionServiceBean</text><ellipse cx="1062.5" cy="469.0859" fill="#E2E2F0" rx="12" ry="12" style="stroke:#181818;stroke-width:0.5;"/><line style="stroke:#181818;stroke-width:0.5;" x1="1050.5" x2="1074.5" y1="483.0859" y2="483.0859"/><text fill="#000000" font-family="sans-serif" font-size="14" lengthAdjust="spacing" textLength="113" x="1291" y="79.5332">Base de Données</text><path d="M1332.5,29 C1332.5,19 1350.5,19 1350.5,19 C1350.5,19 1368.5,19 1368.5,29 L1368.5,55 C1368.5,65 1350.5,65 1350.5,65 C1350.5,65 1332.5,65 1332.5,55 L1332.5,29 " fill="#E2E2F0" style="stroke:#181818;stroke-width:1.5;"/><path d="M1332.5,29 C1332.5,39 1350.5,39 1350.5,39 C1350.5,39 1368.5,39 1368.5,29 " fill="none" style="stroke:#181818;stroke-width:1.5;"/><text fill="#000000" font-family="sans-serif" font-size="14" lengthAdjust="spacing" textLength="113" x="1291" y="450.0098">Base de Données</text><path d="M1332.5,463.0859 C1332.5,453.0859 1350.5,453.0859 1350.5,453.0859 C1350.5,453.0859 1368.5,453.0859 1368.5,463.0859 L1368.5,489.0859 C1368.5,499.0859 1350.5,499.0859 1350.5,499.0859 C1350.5,499.0859 1332.5,499.0859 1332.5,489.0859 L1332.5,463.0859 " fill="#E2E2F0" style="stroke:#181818;stroke-width:1.5;"/><path d="M1332.5,463.0859 C1332.5,473.0859 1350.5,473.0859 1350.5,473.0859 C1350.5,473.0859 1368.5,473.0859 1368.5,463.0859 " fill="none" style="stroke:#181818;stroke-width:1.5;"/><rect fill="#FFFFFF" height="303.5156" style="stroke:#181818;stroke-width:1.0;" width="10" x="262.5" y="114.9609"/><rect fill="#FFFFFF" height="242.8125" style="stroke:#181818;stroke-width:1.0;" width="10" x="608.5" y="145.3125"/><rect fill="#FFFFFF" height="242.8125" style="stroke:#181818;stroke-width:1.0;" width="10" x="875.5" y="175.6641"/><rect fill="#FFFFFF" height="60.7031" style="stroke:#181818;stroke-width:1.0;" width="10" x="1345.5" y="266.7188"/><polygon fill="#181818" points="250.5,110.9609,260.5,114.9609,250.5,118.9609,254.5,114.9609" style="stroke:#181818;stroke-width:1.0;"/><line style="stroke:#181818;stroke-width:1.0;" x1="67.5" x2="256.5" y1="114.9609" y2="114.9609"/><text fill="#000000" font-family="sans-serif" font-size="13" lengthAdjust="spacing" textLength="176" x="74.5" y="110.1045">Clique sur "Ajouter Promotion"</text><polygon fill="#181818" points="596.5,141.3125,606.5,145.3125,596.5,149.3125,600.5,145.3125" style="stroke:#181818;stroke-width:1.0;"/><line style="stroke:#181818;stroke-width:1.0;" x1="272.5" x2="602.5" y1="145.3125" y2="145.3125"/><text fill="#000000" font-family="sans-serif" font-size="13" lengthAdjust="spacing" textLength="317" x="279.5" y="140.4561">Demande d'affichage du formulaire d'ajout de promotion</text><polygon fill="#181818" points="863.5,171.6641,873.5,175.6641,863.5,179.6641,867.5,175.6641" style="stroke:#181818;stroke-width:1.0;"/><line style="stroke:#181818;stroke-width:1.0;" x1="618.5" x2="869.5" y1="175.6641" y2="175.6641"/><text fill="#000000" font-family="sans-serif" font-size="13" lengthAdjust="spacing" textLength="233" x="625.5" y="170.8076">Affiche le formulaire d'ajout de promotion</text><polygon fill="#181818" points="863.5,202.0156,873.5,206.0156,863.5,210.0156,867.5,206.0156" style="stroke:#181818;stroke-width:1.0;"/><line style="stroke:#181818;stroke-width:1.0;" x1="67.5" x2="869.5" y1="206.0156" y2="206.0156"/><text fill="#000000" font-family="sans-serif" font-size="13" lengthAdjust="spacing" textLength="232" x="74.5" y="201.1592">Remplit les informations de la promotion</text><polygon fill="#181818" points="629.5,232.3672,619.5,236.3672,629.5,240.3672,625.5,236.3672" style="stroke:#181818;stroke-width:1.0;"/><line style="stroke:#181818;stroke-width:1.0;" x1="623.5" x2="874.5" y1="236.3672" y2="236.3672"/><text fill="#000000" font-family="sans-serif" font-size="13" lengthAdjust="spacing" textLength="233" x="635.5" y="231.5107">Soumet les informations de la promotion</text><polygon fill="#181818" points="1050.5,262.7188,1060.5,266.7188,1050.5,270.7188,1054.5,266.7188" style="stroke:#181818;stroke-width:1.0;"/><line style="stroke:#181818;stroke-width:1.0;" x1="618.5" x2="1056.5" y1="266.7188" y2="266.7188"/><text fill="#000000" font-family="sans-serif" font-size="13" lengthAdjust="spacing" textLength="239" x="625.5" y="261.8623">Appel de la méthode d'ajout de promotion</text><polygon fill="#181818" points="1333.5,293.0703,1343.5,297.0703,1333.5,301.0703,1337.5,297.0703" style="stroke:#181818;stroke-width:1.0;"/><line style="stroke:#181818;stroke-width:1.0;" x1="1062.5" x2="1339.5" y1="297.0703" y2="297.0703"/><text fill="#000000" font-family="sans-serif" font-size="13" lengthAdjust="spacing" textLength="259" x="1069.5" y="292.2139">Enregistrement des données de la promotion</text><polygon fill="#181818" points="1073.5,323.4219,1063.5,327.4219,1073.5,331.4219,1069.5,327.4219" style="stroke:#181818;stroke-width:1.0;"/><line style="stroke:#181818;stroke-width:1.0;stroke-dasharray:2.0,2.0;" x1="1067.5" x2="1349.5" y1="327.4219" y2="327.4219"/><text fill="#000000" font-family="sans-serif" font-size="13" lengthAdjust="spacing" textLength="171" x="1079.5" y="322.5654">Confirmation d'enregistrement</text><line style="stroke:#A80036;stroke-width:2.0;" x1="1341.5" x2="1359.5" y1="318.4219" y2="336.4219"/><line style="stroke:#A80036;stroke-width:2.0;" x1="1341.5" x2="1359.5" y1="336.4219" y2="318.4219"/><polygon fill="#181818" points="629.5,353.7734,619.5,357.7734,629.5,361.7734,625.5,357.7734" style="stroke:#181818;stroke-width:1.0;"/><line style="stroke:#181818;stroke-width:1.0;stroke-dasharray:2.0,2.0;" x1="623.5" x2="1061.5" y1="357.7734" y2="357.7734"/><text fill="#000000" font-family="sans-serif" font-size="13" lengthAdjust="spacing" textLength="251" x="635.5" y="352.917">Réponse de l'opération d'ajout de promotion</text><line style="stroke:#A80036;stroke-width:2.0;" x1="1053.5" x2="1071.5" y1="348.7734" y2="366.7734"/><line style="stroke:#A80036;stroke-width:2.0;" x1="1053.5" x2="1071.5" y1="366.7734" y2="348.7734"/><polygon fill="#181818" points="863.5,384.125,873.5,388.125,863.5,392.125,867.5,388.125" style="stroke:#181818;stroke-width:1.0;"/><line style="stroke:#181818;stroke-width:1.0;stroke-dasharray:2.0,2.0;" x1="613.5" x2="869.5" y1="388.125" y2="388.125"/><text fill="#000000" font-family="sans-serif" font-size="13" lengthAdjust="spacing" textLength="192" x="620.5" y="383.2686">Confirmation d'ajout de promotion</text><line style="stroke:#A80036;stroke-width:2.0;" x1="604.5" x2="622.5" y1="379.125" y2="397.125"/><line style="stroke:#A80036;stroke-width:2.0;" x1="604.5" x2="622.5" y1="397.125" y2="379.125"/><polygon fill="#181818" points="278.5,414.4766,268.5,418.4766,278.5,422.4766,274.5,418.4766" style="stroke:#181818;stroke-width:1.0;"/><line style="stroke:#181818;stroke-width:1.0;stroke-dasharray:2.0,2.0;" x1="272.5" x2="879.5" y1="418.4766" y2="418.4766"/><text fill="#000000" font-family="sans-serif" font-size="13" lengthAdjust="spacing" textLength="227" x="284.5" y="413.6201">Retour à la page liste avec confirmation</text><line style="stroke:#A80036;stroke-width:2.0;" x1="871.5" x2="889.5" y1="409.4766" y2="427.4766"/><line style="stroke:#A80036;stroke-width:2.0;" x1="871.5" x2="889.5" y1="427.4766" y2="409.4766"/><!--MD5=[3a7dca4a93a93b2be7c041c81c274db5]
@startuml AddPromotion

actor ADMINISTRATEUR as Admin
boundary "Page Liste UI" as PageListeUI
control "GestionPromotionController" as Controller
boundary "Formulaire Ajout Promotion UI" as FormulaireAjoutPromotionUI
entity "PromotionServiceBean" as PromotionServiceBean
database "Base de Données" as Database

Admin -> PageListeUI : Clique sur "Ajouter Promotion"
activate PageListeUI

PageListeUI -> Controller : Demande d'affichage du formulaire d'ajout de promotion
activate Controller
Controller -> FormulaireAjoutPromotionUI : Affiche le formulaire d'ajout de promotion
activate FormulaireAjoutPromotionUI

Admin -> FormulaireAjoutPromotionUI : Remplit les informations de la promotion
FormulaireAjoutPromotionUI -> Controller : Soumet les informations de la promotion
Controller -> PromotionServiceBean : Appel de la méthode d'ajout de promotion
activate Database
PromotionServiceBean -> Database : Enregistrement des données de la promotion
Database - -> PromotionServiceBean : Confirmation d'enregistrement
destroy Database
PromotionServiceBean - -> Controller : Réponse de l'opération d'ajout de promotion
destroy PromotionServiceBean
Controller - -> FormulaireAjoutPromotionUI : Confirmation d'ajout de promotion
destroy Controller
FormulaireAjoutPromotionUI - -> PageListeUI : Retour à la page liste avec confirmation
destroy FormulaireAjoutPromotionUI

deactivate PageListeUI

@enduml

PlantUML version 1.2022.7(Mon Aug 22 18:01:30 WEST 2022)
(GPL source distribution)
Java Runtime: Java(TM) SE Runtime Environment
JVM: Java HotSpot(TM) 64-Bit Server VM
Default Encoding: UTF-8
Language: fr
Country: FR
--></g></svg>